<mxfile host="app.diagrams.net" agent="Mozilla/5.0 (Windows NT 10.0; Win64; x64) AppleWebKit/537.36 (KHTML, like Gecko) Chrome/138.0.0.0 Safari/537.36" version="28.0.9">
  <diagram name="Page-1" id="aVxUdyFqYSDNTRJ5KpuL">
    <mxGraphModel dx="872" dy="473" grid="1" gridSize="10" guides="1" tooltips="1" connect="1" arrows="1" fold="1" page="1" pageScale="1" pageWidth="1169" pageHeight="827" math="0" shadow="0">
      <root>
        <mxCell id="0" />
        <mxCell id="1" parent="0" />
        <mxCell id="6p7HFDYntR_mGaMEA-Dp-2" value="&lt;div style=&quot;text-align: left;&quot;&gt;&lt;font face=&quot;Times New Roman&quot;&gt;&lt;span style=&quot;font-size: 18px;&quot;&gt;&lt;br&gt;&lt;/span&gt;&lt;/font&gt;&lt;/div&gt;&lt;ul&gt;&lt;li style=&quot;text-align: left;&quot;&gt;&lt;font style=&quot;font-size: 18px;&quot; face=&quot;Times New Roman&quot;&gt;Topography (&lt;/font&gt;&lt;font style=&quot;font-size: 14px;&quot; face=&quot;Times New Roman&quot;&gt;LS&lt;/font&gt;&lt;font style=&quot;font-size: 18px;&quot; face=&quot;Times New Roman&quot;&gt;): Slope length and steepness&lt;/font&gt;&lt;/li&gt;&lt;li style=&quot;text-align: left;&quot;&gt;&lt;font style=&quot;font-size: 18px;&quot; face=&quot;Times New Roman&quot;&gt;Rainfall Erosivity (&lt;/font&gt;&lt;font style=&quot;font-size: 14px;&quot; face=&quot;Times New Roman&quot;&gt;R&lt;/font&gt;&lt;font style=&quot;font-size: 18px;&quot; face=&quot;Times New Roman&quot;&gt;)&lt;/font&gt;&lt;/li&gt;&lt;li style=&quot;text-align: left;&quot;&gt;&lt;font style=&quot;font-size: 18px;&quot; face=&quot;Times New Roman&quot;&gt;Soil Erodibility (&lt;/font&gt;&lt;font style=&quot;font-size: 14px;&quot; face=&quot;Times New Roman&quot;&gt;K&lt;/font&gt;&lt;font style=&quot;font-size: 18px;&quot; face=&quot;Times New Roman&quot;&gt;): Soil texture, Soil Organic Matter, and Soil Permeability&lt;/font&gt;&lt;/li&gt;&lt;/ul&gt;" style="rounded=1;whiteSpace=wrap;html=1;" vertex="1" parent="1">
          <mxGeometry x="70" y="70" width="320" height="170" as="geometry" />
        </mxCell>
        <mxCell id="6p7HFDYntR_mGaMEA-Dp-1" value="&lt;font style=&quot;font-size: 18px;&quot;&gt;&lt;b style=&quot;&quot;&gt;Natural drivers&lt;/b&gt;&lt;/font&gt;" style="rounded=1;whiteSpace=wrap;html=1;" vertex="1" parent="1">
          <mxGeometry x="130" y="80" width="180" height="30" as="geometry" />
        </mxCell>
        <mxCell id="6p7HFDYntR_mGaMEA-Dp-4" value="&lt;div style=&quot;text-align: left;&quot;&gt;&lt;font face=&quot;Times New Roman&quot;&gt;&lt;span style=&quot;font-size: 18px;&quot;&gt;&lt;br&gt;&lt;/span&gt;&lt;/font&gt;&lt;/div&gt;&lt;ul&gt;&lt;li style=&quot;text-align: left;&quot;&gt;&lt;font style=&quot;font-size: 18px;&quot; face=&quot;Times New Roman&quot;&gt;Land use change pattern: &lt;/font&gt;&lt;font style=&quot;font-size: 14px;&quot; face=&quot;Times New Roman&quot;&gt;CL, BU, VT, BL&lt;/font&gt;&lt;font style=&quot;font-size: 18px;&quot; face=&quot;Times New Roman&quot;&gt;, and &lt;/font&gt;&lt;font style=&quot;font-size: 14px;&quot; face=&quot;Times New Roman&quot;&gt;WB&lt;/font&gt;&lt;/li&gt;&lt;li style=&quot;text-align: left;&quot;&gt;&lt;font style=&quot;font-size: 18px;&quot; face=&quot;Times New Roman&quot;&gt;Cover management (&lt;/font&gt;&lt;font style=&quot;font-size: 14px;&quot; face=&quot;Times New Roman&quot;&gt;C&lt;/font&gt;&lt;font style=&quot;font-size: 18px;&quot; face=&quot;Times New Roman&quot;&gt;): &lt;/font&gt;&lt;font style=&quot;font-size: 14px;&quot; face=&quot;Times New Roman&quot;&gt;NDVI&lt;/font&gt;&lt;font style=&quot;font-size: 18px;&quot; face=&quot;Times New Roman&quot;&gt; for &lt;/font&gt;&lt;font style=&quot;font-size: 14px;&quot; face=&quot;Times New Roman&quot;&gt;CL/VT&lt;/font&gt;&lt;font style=&quot;font-size: 18px;&quot; face=&quot;Times New Roman&quot;&gt;; static for &lt;/font&gt;&lt;font style=&quot;font-size: 14px;&quot; face=&quot;Times New Roman&quot;&gt;BU/BL/WB&lt;/font&gt;&lt;/li&gt;&lt;li style=&quot;text-align: left;&quot;&gt;&lt;font style=&quot;font-size: 18px;&quot; face=&quot;Times New Roman&quot;&gt;Support practices (&lt;/font&gt;&lt;font style=&quot;font-size: 14px;&quot; face=&quot;Times New Roman&quot;&gt;P&lt;/font&gt;&lt;font style=&quot;font-size: 18px;&quot; face=&quot;Times New Roman&quot;&gt;): Slope-based effectiveness&lt;/font&gt;&lt;/li&gt;&lt;/ul&gt;" style="rounded=1;whiteSpace=wrap;html=1;" vertex="1" parent="1">
          <mxGeometry x="470" y="70" width="410" height="180" as="geometry" />
        </mxCell>
        <mxCell id="6p7HFDYntR_mGaMEA-Dp-5" value="&lt;font style=&quot;font-size: 18px;&quot;&gt;&lt;b style=&quot;&quot;&gt;Human Modification&lt;/b&gt;&lt;/font&gt;" style="rounded=1;whiteSpace=wrap;html=1;" vertex="1" parent="1">
          <mxGeometry x="560" y="80" width="230" height="30" as="geometry" />
        </mxCell>
        <mxCell id="6p7HFDYntR_mGaMEA-Dp-6" value="&lt;div style=&quot;text-align: left;&quot;&gt;&lt;font face=&quot;Times New Roman&quot;&gt;&lt;span style=&quot;font-size: 18px;&quot;&gt;&lt;br&gt;&lt;/span&gt;&lt;/font&gt;&lt;/div&gt;&lt;ul&gt;&lt;li style=&quot;text-align: left;&quot;&gt;&lt;font style=&quot;font-size: 18px;&quot; face=&quot;Times New Roman&quot;&gt;Land use change pattern: &lt;/font&gt;&lt;font style=&quot;font-size: 14px;&quot; face=&quot;Times New Roman&quot;&gt;CL, BU, VT, BL&lt;/font&gt;&lt;font style=&quot;font-size: 18px;&quot; face=&quot;Times New Roman&quot;&gt;, and &lt;/font&gt;&lt;font style=&quot;font-size: 14px;&quot; face=&quot;Times New Roman&quot;&gt;WB&lt;/font&gt;&lt;/li&gt;&lt;li style=&quot;text-align: left;&quot;&gt;&lt;font style=&quot;font-size: 18px;&quot; face=&quot;Times New Roman&quot;&gt;Cover management (&lt;/font&gt;&lt;font style=&quot;font-size: 14px;&quot; face=&quot;Times New Roman&quot;&gt;C&lt;/font&gt;&lt;font style=&quot;font-size: 18px;&quot; face=&quot;Times New Roman&quot;&gt;): &lt;/font&gt;&lt;font style=&quot;font-size: 14px;&quot; face=&quot;Times New Roman&quot;&gt;NDVI&lt;/font&gt;&lt;font style=&quot;font-size: 18px;&quot; face=&quot;Times New Roman&quot;&gt; for &lt;/font&gt;&lt;font style=&quot;font-size: 14px;&quot; face=&quot;Times New Roman&quot;&gt;CL/VT&lt;/font&gt;&lt;font style=&quot;font-size: 18px;&quot; face=&quot;Times New Roman&quot;&gt;; static for &lt;/font&gt;&lt;font style=&quot;font-size: 14px;&quot; face=&quot;Times New Roman&quot;&gt;BU/BL/WB&lt;/font&gt;&lt;/li&gt;&lt;li style=&quot;text-align: left;&quot;&gt;&lt;font style=&quot;font-size: 18px;&quot; face=&quot;Times New Roman&quot;&gt;Support practices (&lt;/font&gt;&lt;font style=&quot;font-size: 14px;&quot; face=&quot;Times New Roman&quot;&gt;P&lt;/font&gt;&lt;font style=&quot;font-size: 18px;&quot; face=&quot;Times New Roman&quot;&gt;): Slope-based effectiveness&lt;/font&gt;&lt;/li&gt;&lt;/ul&gt;" style="rounded=1;whiteSpace=wrap;html=1;" vertex="1" parent="1">
          <mxGeometry x="470" y="324" width="410" height="180" as="geometry" />
        </mxCell>
        <mxCell id="6p7HFDYntR_mGaMEA-Dp-7" value="&lt;font style=&quot;font-size: 18px;&quot;&gt;&lt;b style=&quot;&quot;&gt;Human Modification&lt;/b&gt;&lt;/font&gt;" style="rounded=1;whiteSpace=wrap;html=1;" vertex="1" parent="1">
          <mxGeometry x="560" y="334" width="230" height="30" as="geometry" />
        </mxCell>
      </root>
    </mxGraphModel>
  </diagram>
</mxfile>
